<svg width="56" height="56" viewBox="0 0 56 56" fill="none" xmlns="http://www.w3.org/2000/svg">
<g id="Group 2085654880">
<circle id="Ellipse 1" cx="28" cy="28" r="28" transform="matrix(1 8.74228e-08 8.74228e-08 -1 0 56)" fill="#0C91FC"/>
<path id="Vector" d="M30.8763 28.0075L30.5915 27.6796L25.5632 21.8908C25.5632 21.8908 25.5632 21.8908 25.5631 21.8908C25.4573 21.7689 25.3882 21.5903 25.3882 21.3919C25.3882 21.1934 25.4573 21.0148 25.5632 20.8929C25.6671 20.7734 25.7916 20.7227 25.9038 20.7227C26.0161 20.7227 26.1406 20.7734 26.2446 20.8929L30.8763 28.0075ZM30.8763 28.0075L30.5915 28.3354L25.5664 34.1205C25.4643 34.2437 25.3991 34.4205 25.4005 34.6151C25.402 34.8113 25.4709 34.9873 25.5755 35.1078C25.6783 35.2261 25.8014 35.2771 25.9125 35.2782C26.0226 35.2793 26.1445 35.2317 26.2478 35.1183L31.9911 28.5065C32.0969 28.3846 32.166 28.206 32.166 28.0075C32.166 27.809 32.0969 27.6305 31.9911 27.5086C31.9911 27.5086 31.9911 27.5085 31.9911 27.5085L26.2446 20.893L30.8763 28.0075Z" fill="#0C91FC" stroke="white"/>
</g>
</svg>
