<svg width="55" height="55" viewBox="0 0 55 55" fill="none" xmlns="http://www.w3.org/2000/svg">
<g id="event_available_FILL0_wght300_GRAD0_opsz48 (3) 1">
<path id="Vector" d="M24.8961 41.1221L17.717 34.0004L19.5282 32.1892L24.8961 37.4644L35.2173 27.121L37.0506 28.9675L24.8961 41.1221ZM11.3268 49.2708C10.4281 49.2708 9.65258 48.9446 9.00014 48.2921C8.3477 47.6397 8.02148 46.8641 8.02148 45.9655V12.7806C8.02148 11.8819 8.3477 11.1064 9.00014 10.4539C9.65258 9.80148 10.4281 9.47526 11.3268 9.47526H15.5576V5.46484H18.4442V9.47526H36.6452V5.46484H39.4656V9.47526H43.6744C44.5731 9.47526 45.3486 9.80148 46.0011 10.4539C46.6535 11.1064 46.9797 11.8819 46.9797 12.7806V45.9655C46.9797 46.8641 46.6535 47.6397 46.0011 48.2921C45.3486 48.9446 44.5731 49.2708 43.6744 49.2708H11.3268ZM11.3268 46.6707H43.6744C43.8507 46.6707 44.0123 46.5972 44.1592 46.4503C44.3061 46.3034 44.3796 46.1418 44.3796 45.9655V23.2032H10.6216V45.9655C10.6216 46.1418 10.6951 46.3034 10.842 46.4503C10.9889 46.5972 11.1505 46.6707 11.3268 46.6707ZM10.6216 20.6031H44.3796V12.7806C44.3796 12.6043 44.3061 12.4427 44.1592 12.2957C44.0123 12.1488 43.8507 12.0754 43.6744 12.0754H11.3268C11.1505 12.0754 10.9889 12.1488 10.842 12.2957C10.6951 12.4427 10.6216 12.6043 10.6216 12.7806V20.6031Z" fill="white"/>
</g>
</svg>
