<svg width="56" height="56" viewBox="0 0 56 56" fill="none" xmlns="http://www.w3.org/2000/svg">
<g id="Group 2085654879">
<circle id="Ellipse 1" cx="28" cy="28" r="28" transform="rotate(180 28 28)" fill="#F4F4F5"/>
<path id="Vector" d="M25.1237 28.0075L25.4085 27.6796L30.4368 21.8908C30.4368 21.8908 30.4368 21.8908 30.4369 21.8908C30.5427 21.7689 30.6118 21.5903 30.6118 21.3919C30.6118 21.1934 30.5427 21.0148 30.4368 20.8929C30.3329 20.7734 30.2084 20.7227 30.0962 20.7227C29.9839 20.7227 29.8594 20.7734 29.7554 20.8929L25.1237 28.0075ZM25.1237 28.0075L25.4085 28.3354L30.4336 34.1205C30.5357 34.2437 30.6009 34.4205 30.5995 34.6151C30.598 34.8113 30.5291 34.9873 30.4245 35.1078C30.3217 35.2261 30.1986 35.2771 30.0875 35.2782C29.9774 35.2793 29.8555 35.2317 29.7522 35.1183L24.0089 28.5065C23.9031 28.3846 23.834 28.206 23.834 28.0075C23.834 27.809 23.9031 27.6305 24.0089 27.5086C24.0089 27.5086 24.0089 27.5085 24.0089 27.5085L29.7554 20.893L25.1237 28.0075Z" fill="#0C91FC" stroke="#BCBCBC"/>
</g>
</svg>
