<svg width="23" height="16" viewBox="0 0 23 16" fill="none" xmlns="http://www.w3.org/2000/svg">
<g id="Vector">
<path d="M0.898438 7.11111H22.1016C22.5978 7.11111 23 7.50907 23 8C23 8.49093 22.5978 8.88889 22.1016 8.88889H0.898438C0.402231 8.88889 0 8.49093 0 8C0 7.50907 0.402231 7.11111 0.898438 7.11111Z" fill="white"/>
<path d="M0.898438 0H22.1016C22.5978 0 23 0.397956 23 0.888889C23 1.37982 22.5978 1.77778 22.1016 1.77778H0.898438C0.402231 1.77778 0 1.37982 0 0.888889C0 0.397956 0.402231 0 0.898438 0Z" fill="white"/>
<path d="M0.898438 14.2222H22.1016C22.5978 14.2222 23 14.6202 23 15.1111C23 15.602 22.5978 16 22.1016 16H0.898438C0.402231 16 0 15.602 0 15.1111C0 14.6202 0.402231 14.2222 0.898438 14.2222Z" fill="white"/>
</g>
</svg>
